<?xml version="1.0" encoding="utf-8"?>
<!-- Generator: Adobe Illustrator 16.0.0, SVG Export Plug-In . SVG Version: 6.00 Build 0)  -->
<!DOCTYPE svg PUBLIC "-//W3C//DTD SVG 1.1//EN" "http://www.w3.org/Graphics/SVG/1.1/DTD/svg11.dtd">
<svg version="1.1" xmlns="http://www.w3.org/2000/svg" xmlns:xlink="http://www.w3.org/1999/xlink" x="0px" y="0px" width="310px"
	 height="357px" viewBox="0 0 310 357" enable-background="new 0 0 310 357" xml:space="preserve">
<g id="Layer_2">
	<g>
		<defs>
			<polygon id="SVGID_1_" points="303.314,263.924 154.746,349.406 6.431,263.483 6.686,92.077 155.255,6.594 303.568,92.518 			"/>
		</defs>
		<use xlink:href="#SVGID_1_"  overflow="visible" fill="#A6A8AB"/>
		<clipPath id="SVGID_2_">
			<use xlink:href="#SVGID_1_"  overflow="visible"/>
		</clipPath>
		<g clip-path="url(#SVGID_2_)">
			<rect x="3" y="6" fill="none" width="639" height="351"/>
			<text transform="matrix(1 0 0 1 3 15.9399)"><tspan x="0" y="0" fill="#A6A8AB" font-family="'MyriadPro-Regular'" font-size="14">&lt;!DOCTYPE HTML&gt;&lt;head&gt;&lt;link href=&apos;http://fonts.googleapis.com/css?family=Tangerine:700&apos; rel=&apos;stylesheet&apos; </tspan><tspan x="0" y="16.8" fill="#A6A8AB" font-family="'MyriadPro-Regular'" font-size="14">type=&apos;text/css&apos;/&gt;&lt;link href=&apos;http://fonts.googleapis.com/css?family=Titillium+Web:700&apos; rel=&apos;stylesheet&apos; </tspan><tspan x="0" y="33.6" fill="#A6A8AB" font-family="'MyriadPro-Regular'" font-size="14">type=&apos;text/css&apos;/&gt;&lt;meta http-equiv=&quot;Content-Type&quot; content=&quot;text/html;charset=UTF-8&quot;/&gt;&lt;script&gt;(func</tspan><tspan x="600.932" y="33.6" fill="#A6A8AB" font-family="'MyriadPro-Regular'" font-size="14">-</tspan><tspan x="0" y="50.4" fill="#A6A8AB" font-family="'MyriadPro-Regular'" font-size="14">tion(i,s,o,g,r,a,m){i[&apos;GoogleAnalyticsObject&apos;]=r;i[r]=i[r]||function(){(i[r].q=i[r].q||[]).push(arguments)},i[r].l=1*new </tspan><tspan x="0" y="67.2" fill="#A6A8AB" font-family="'MyriadPro-Regular'" font-size="14">Date();a=s.createElement(o), m=s.getElementsByTagName(o)[0];a.async=1;a.src=g;m.parent</tspan><tspan x="533.355" y="67.2" fill="#A6A8AB" font-family="'MyriadPro-Regular'" font-size="14">-</tspan><tspan x="0" y="84" fill="#A6A8AB" font-family="'MyriadPro-Regular'" font-size="14">Node.insertBefore(a,m)})(window,document,&apos;script&apos;,&apos;//www.google-analytics.com/analytics.js&apos;,&apos;ga&apos;);ga(&apos;create&apos;, </tspan><tspan x="0" y="100.8" fill="#A6A8AB" font-family="'MyriadPro-Regular'" font-size="14">&apos;UA-41934430-1&apos;, &apos;highoctaneds.com&apos;);ga(&apos;send&apos;, &apos;pageview&apos;);&lt;/script&gt;&lt;link href=&quot;hods.css&quot; rel=&quot;stylesheet&quot; </tspan><tspan x="0" y="117.6" fill="#A6A8AB" font-family="'MyriadPro-Regular'" font-size="14">type=&quot;text/css&quot;/&gt;&lt;title&gt;High Octane DS&lt;/title&gt;&lt;/head&gt;&lt;div id=&quot;pagewrapper&quot;&gt;&lt;body&gt;&lt;header id=&quot;logo&quot; </tspan><tspan x="0" y="134.4" fill="#A6A8AB" font-family="'MyriadPro-Regular'" font-size="14">width=&quot;350px&quot;&gt;&lt;img src=&quot;images/hods-logo.svg&quot; alt=&quot;High Octane DS logo&quot; width=&quot;350px&quot;/&gt;&lt;/head</tspan><tspan x="597.32" y="134.4" fill="#A6A8AB" font-family="'MyriadPro-Regular'" font-size="14">-</tspan><tspan x="0" y="151.2" fill="#A6A8AB" font-family="'MyriadPro-Regular'" font-size="14">er&gt;&lt;nav id=&quot;mainnav&quot;&gt;&lt;ul&gt;&lt;li&gt;&lt;a href=&quot;index.html&quot;&gt;Home&lt;/a&gt;&lt;/li&gt;&lt;li&gt;&lt;a href=&quot;assignments.html&quot;&gt;As</tspan><tspan x="622.284" y="151.2" fill="#A6A8AB" font-family="'MyriadPro-Regular'" font-size="14">-</tspan><tspan x="0" y="168" fill="#A6A8AB" font-family="'MyriadPro-Regular'" font-size="14">signments&lt;/a&gt;&lt;/li&gt;&lt;li&gt;&lt;a href=&quot;portfolio.html&quot;&gt;Portfolio&lt;/a&gt;&lt;/li&gt;&lt;li&gt;&lt;a href=&quot;services.html&quot;&gt;Ser</tspan><tspan x="581.78" y="168" fill="#A6A8AB" font-family="'MyriadPro-Regular'" font-size="14">-</tspan><tspan x="0" y="184.8" fill="#A6A8AB" font-family="'MyriadPro-Regular'" font-size="14">vices&lt;/a&gt;&lt;/li&gt;&lt;li&gt;&lt;a href=&quot;contact.html&quot;&gt;Contact&lt;/a&gt;&lt;/li&gt;&lt;li&gt;&lt;a href=&quot;aboutus.htm</tspan><tspan x="505.33" y="184.8" fill="#A6A8AB" font-family="'MyriadPro-Regular'" font-size="14">-</tspan><tspan x="0" y="201.6" fill="#A6A8AB" font-family="'MyriadPro-Regular'" font-size="14">l&quot;&gt;About&lt;/a&gt;&lt;/li&gt;&lt;/ul&gt;&lt;/nav&gt;&lt;div class=&quot;clear_float&quot;&gt;&lt;/div&gt;&lt;br/&gt;&lt;p id=&quot;quote&quot;&gt;We turn ideas into code, </tspan><tspan x="0" y="218.4" fill="#A6A8AB" font-family="'MyriadPro-Regular'" font-size="14">and code into art.&lt;/p&gt;&lt;div id=&quot;hex&quot;&gt;&lt;div class=&quot;hexagon&quot;&gt;&lt;img src=&quot;images/html5-logo.svg&quot; alt=&quot;html5 </tspan><tspan x="0" y="235.2" fill="#A6A8AB" font-family="'MyriadPro-Regular'" font-size="14">logo&quot; width=&quot;200px&quot;/&gt;&lt;p&gt;&lt;/p&gt;&lt;/div&gt;&lt;div class=&quot;hexagon&quot;&gt;&lt;/div&gt;&lt;div class=&quot;hex</tspan><tspan x="492.883" y="235.2" fill="#A6A8AB" font-family="'MyriadPro-Regular'" font-size="14">-</tspan><tspan x="0" y="252" fill="#A6A8AB" font-family="'MyriadPro-Regular'" font-size="14">agon&quot;&gt;&lt;/div&gt;&lt;/div&gt;&lt;h1&gt;Welcome to High Octane Design&lt;/h1&gt;&lt;article&gt;&lt;p&gt;Here at High Octane Design </tspan><tspan x="0" y="268.8" fill="#A6A8AB" font-family="'MyriadPro-Regular'" font-size="14">we strive to stay on the cutting edge of internet technology and web development. What does that mean for </tspan><tspan x="0" y="285.6" fill="#A6A8AB" font-family="'MyriadPro-Regular'" font-size="14">you? It means that your website will meet the demands of mobile technology. Reports estimate that by 2014 </tspan><tspan x="0" y="302.4" fill="#A6A8AB" font-family="'MyriadPro-Regular'" font-size="14">mobile browsing will overtake desktop. Does your site incorporate responsive web design? Does your website </tspan><tspan x="0" y="319.2" fill="#A6A8AB" font-family="'MyriadPro-Regular'" font-size="14">satisfy your customers needs as completely on a cell phone as it does on their home computer? Here at High </tspan><tspan x="0" y="336" fill="#A6A8AB" font-family="'MyriadPro-Regular'" font-size="14">Octane we stay on top of the everchanging technological world so all you have to worry about is satisfying </tspan></text>
		</g>
	</g>
</g>
<g id="Layer_1">
	<g>
		<defs>
			<polygon id="SVGID_3_" points="303.314,263.924 154.746,349.406 6.431,263.483 6.686,92.077 155.255,6.594 303.568,92.518 			"/>
		</defs>
		<clipPath id="SVGID_4_">
			<use xlink:href="#SVGID_3_"  overflow="visible"/>
		</clipPath>
		<g clip-path="url(#SVGID_4_)">
			<rect x="3" y="6" fill="none" width="639" height="351"/>
			<text transform="matrix(1 0 0 1 3 15.9399)"><tspan x="0" y="0" fill="#FFFFFF" font-family="'MyriadPro-Regular'" font-size="14">&lt;!DOCTYPE HTML&gt;&lt;head&gt;&lt;link href=&apos;http://fonts.googleapis.com/css?family=Tangerine:700&apos; rel=&apos;stylesheet&apos; </tspan><tspan x="0" y="16.8" fill="#FFFFFF" font-family="'MyriadPro-Regular'" font-size="14">type=&apos;text/css&apos;/&gt;&lt;link href=&apos;http://fonts.googleapis.com/css?family=Titillium+Web:700&apos; rel=&apos;stylesheet&apos; </tspan><tspan x="0" y="33.6" fill="#FFFFFF" font-family="'MyriadPro-Regular'" font-size="14">type=&apos;text/css&apos;/&gt;&lt;meta http-equiv=&quot;Content-Type&quot; content=&quot;text/html;charset=UTF-8&quot;/&gt;&lt;script&gt;(func</tspan><tspan x="600.932" y="33.6" fill="#FFFFFF" font-family="'MyriadPro-Regular'" font-size="14">-</tspan><tspan x="0" y="50.4" fill="#FFFFFF" font-family="'MyriadPro-Regular'" font-size="14">tion(i,s,o,g,r,a,m){i[&apos;GoogleAnalyticsObject&apos;]=r;i[r]=i[r]||function(){(i[r].q=i[r].q||[]).push(arguments)},i[r].l=1*new </tspan><tspan x="0" y="67.2" fill="#FFFFFF" font-family="'MyriadPro-Regular'" font-size="14">Date();a=s.createElement(o), m=s.getElementsByTagName(o)[0];a.async=1;a.src=g;m.parent</tspan><tspan x="533.355" y="67.2" fill="#FFFFFF" font-family="'MyriadPro-Regular'" font-size="14">-</tspan><tspan x="0" y="84" fill="#FFFFFF" font-family="'MyriadPro-Regular'" font-size="14">Node.insertBefore(a,m)})(window,document,&apos;script&apos;,&apos;//www.google-analytics.com/analytics.js&apos;,&apos;ga&apos;);ga(&apos;create&apos;, </tspan><tspan x="0" y="100.8" fill="#FFFFFF" font-family="'MyriadPro-Regular'" font-size="14">&apos;UA-41934430-1&apos;, &apos;highoctaneds.com&apos;);ga(&apos;send&apos;, &apos;pageview&apos;);&lt;/script&gt;&lt;link href=&quot;hods.css&quot; rel=&quot;stylesheet&quot; </tspan><tspan x="0" y="117.6" fill="#FFFFFF" font-family="'MyriadPro-Regular'" font-size="14">type=&quot;text/css&quot;/&gt;&lt;title&gt;High Octane DS&lt;/title&gt;&lt;/head&gt;&lt;div id=&quot;pagewrapper&quot;&gt;&lt;body&gt;&lt;header id=&quot;logo&quot; </tspan><tspan x="0" y="134.4" fill="#FFFFFF" font-family="'MyriadPro-Regular'" font-size="14">width=&quot;350px&quot;&gt;&lt;img src=&quot;images/hods-logo.svg&quot; alt=&quot;High Octane DS logo&quot; width=&quot;350px&quot;/&gt;&lt;/head</tspan><tspan x="597.32" y="134.4" fill="#FFFFFF" font-family="'MyriadPro-Regular'" font-size="14">-</tspan><tspan x="0" y="151.2" fill="#FFFFFF" font-family="'MyriadPro-Regular'" font-size="14">er&gt;&lt;nav id=&quot;mainnav&quot;&gt;&lt;ul&gt;&lt;li&gt;&lt;a href=&quot;index.html&quot;&gt;Home&lt;/a&gt;&lt;/li&gt;&lt;li&gt;&lt;a href=&quot;assignments.html&quot;&gt;As</tspan><tspan x="622.284" y="151.2" fill="#FFFFFF" font-family="'MyriadPro-Regular'" font-size="14">-</tspan><tspan x="0" y="168" fill="#FFFFFF" font-family="'MyriadPro-Regular'" font-size="14">signments&lt;/a&gt;&lt;/li&gt;&lt;li&gt;&lt;a href=&quot;portfolio.html&quot;&gt;Portfolio&lt;/a&gt;&lt;/li&gt;&lt;li&gt;&lt;a href=&quot;services.html&quot;&gt;Ser</tspan><tspan x="581.78" y="168" fill="#FFFFFF" font-family="'MyriadPro-Regular'" font-size="14">-</tspan><tspan x="0" y="184.8" fill="#FFFFFF" font-family="'MyriadPro-Regular'" font-size="14">vices&lt;/a&gt;&lt;/li&gt;&lt;li&gt;&lt;a href=&quot;contact.html&quot;&gt;Contact&lt;/a&gt;&lt;/li&gt;&lt;li&gt;&lt;a href=&quot;aboutus.htm</tspan><tspan x="505.33" y="184.8" fill="#FFFFFF" font-family="'MyriadPro-Regular'" font-size="14">-</tspan><tspan x="0" y="201.6" fill="#FFFFFF" font-family="'MyriadPro-Regular'" font-size="14">l&quot;&gt;About&lt;/a&gt;&lt;/li&gt;&lt;/ul&gt;&lt;/nav&gt;&lt;div class=&quot;clear_float&quot;&gt;&lt;/div&gt;&lt;br/&gt;&lt;p id=&quot;quote&quot;&gt;We turn ideas into code, </tspan><tspan x="0" y="218.4" fill="#FFFFFF" font-family="'MyriadPro-Regular'" font-size="14">and code into art.&lt;/p&gt;&lt;div id=&quot;hex&quot;&gt;&lt;div class=&quot;hexagon&quot;&gt;&lt;img src=&quot;images/html5-logo.svg&quot; alt=&quot;html5 </tspan><tspan x="0" y="235.2" fill="#FFFFFF" font-family="'MyriadPro-Regular'" font-size="14">logo&quot; width=&quot;200px&quot;/&gt;&lt;p&gt;&lt;/p&gt;&lt;/div&gt;&lt;div class=&quot;hexagon&quot;&gt;&lt;/div&gt;&lt;div class=&quot;hex</tspan><tspan x="492.883" y="235.2" fill="#FFFFFF" font-family="'MyriadPro-Regular'" font-size="14">-</tspan><tspan x="0" y="252" fill="#FFFFFF" font-family="'MyriadPro-Regular'" font-size="14">agon&quot;&gt;&lt;/div&gt;&lt;/div&gt;&lt;h1&gt;Welcome to High Octane Design&lt;/h1&gt;&lt;article&gt;&lt;p&gt;Here at High Octane Design </tspan><tspan x="0" y="268.8" fill="#FFFFFF" font-family="'MyriadPro-Regular'" font-size="14">we strive to stay on the cutting edge of internet technology and web development. What does that mean for </tspan><tspan x="0" y="285.6" fill="#FFFFFF" font-family="'MyriadPro-Regular'" font-size="14">you? It means that your website will meet the demands of mobile technology. Reports estimate that by 2014 </tspan><tspan x="0" y="302.4" fill="#FFFFFF" font-family="'MyriadPro-Regular'" font-size="14">mobile browsing will overtake desktop. Does your site incorporate responsive web design? Does your website </tspan><tspan x="0" y="319.2" fill="#FFFFFF" font-family="'MyriadPro-Regular'" font-size="14">satisfy your customers needs as completely on a cell phone as it does on their home computer? Here at High </tspan><tspan x="0" y="336" fill="#FFFFFF" font-family="'MyriadPro-Regular'" font-size="14">Octane we stay on top of the everchanging technological world so all you have to worry about is satisfying </tspan></text>
		</g>
	</g>
</g>
<g id="Layer_5" display="none">
	<g display="inline">
		<title>HTML5 Logo</title>
		<polygon fill="#E54F26" points="90.313,277.169 76,116.628 233.279,116.628 218.951,277.144 154.543,295 		"/>
		<polygon fill="#F16529" points="154.64,281.352 206.684,266.923 218.928,129.755 154.64,129.755 		"/>
		<polygon fill="#EBEAEA" points="154.64,189.297 128.585,189.297 126.785,169.135 154.64,169.135 154.64,149.445 154.571,149.445 
			105.267,149.445 105.738,154.727 110.578,208.986 154.64,208.986 		"/>
		<polygon fill="#EBEAEA" points="154.64,240.434 154.553,240.457 132.625,234.535 131.223,218.832 120.567,218.832 
			111.458,218.832 114.216,249.748 154.549,260.944 154.64,260.919 		"/>
		<path d="M90.633,73h10.006v9.886h9.153V73h10.006v29.937h-10.006V92.913h-9.153v10.024H90.634L90.633,73L90.633,73z"/>
		<path d="M132.957,82.928h-8.809V73h27.629v9.928h-8.812v20.009h-10.007L132.957,82.928L132.957,82.928z"/>
		<path d="M156.162,73h10.434l6.418,10.519L179.426,73h10.438v29.937h-9.965V88.099l-6.885,10.644h-0.172l-6.89-10.644v14.838h-9.79
			V73z"/>
		<path d="M194.842,73h10.01v20.042h14.071v9.896h-24.081V73z"/>
		<polygon fill="#FFFFFF" points="154.571,189.297 154.571,208.986 178.816,208.986 176.531,234.523 154.571,240.45 
			154.571,260.935 194.937,249.748 195.232,246.421 199.859,194.584 200.34,189.297 195.033,189.297 		"/>
		<polygon fill="#FFFFFF" points="154.571,149.445 154.571,161.674 154.571,169.086 154.571,169.135 202.068,169.135 
			202.068,169.135 202.131,169.135 202.526,164.709 203.424,154.727 203.895,149.445 		"/>
	</g>
</g>
<g id="Layer_4">
	<polyline fill="#1F62AE" points="152.134,301.357 85.543,283.427 70.176,116.952 234.093,116.952 218.724,283.427 152.134,301.357 
			"/>
	<polygon fill="#3C9BD5" points="156.141,117.905 156.141,286.008 156.304,286.052 214.143,270.478 227.493,117.905 	"/>
	<g>
		<polygon fill="#231F20" points="114.341,92.493 114.341,82.584 128.797,82.584 128.797,71.742 103.498,71.742 103.498,102.387 
			128.797,102.387 128.797,92.493 		"/>
		<path fill="#231F20" d="M154.804,82.584h10.106V71.742h-25.301c0,0,0,5.442,0,10.842c3.385,3.385,5.15,5.005,10.045,9.901
			c-2.861,0-10.045,0.011-10.045,0.01v9.892h25.301v-9.894L154.804,82.584z"/>
		<path fill="#231F20" d="M190.664,82.584h10.107V71.742h-25.304c0,0,0,5.442,0,10.842c3.385,3.385,5.15,5.005,10.047,9.901
			c-2.86,0-10.047,0.011-10.047,0.01v9.892h25.304v-9.894L190.664,82.584z"/>
	</g>
	<g>
		<polygon fill="#FFFFFF" points="156.078,162.582 104.922,183.888 106.619,204.98 156.078,183.833 208.689,161.34 210.871,139.763 
					"/>
		<linearGradient id="SVGID_5_" gradientUnits="userSpaceOnUse" x1="130.5005" y1="204.9805" x2="130.5005" y2="162.582">
			<stop  offset="0.3865" style="stop-color:#D0D2D3;stop-opacity:0"/>
			<stop  offset="1" style="stop-color:#D0D2D3"/>
		</linearGradient>
		<polygon fill="url(#SVGID_5_)" points="104.922,183.888 106.619,204.98 156.078,183.833 156.078,162.582 		"/>
		<linearGradient id="SVGID_6_" gradientUnits="userSpaceOnUse" x1="183.4746" y1="183.8335" x2="183.4746" y2="139.7632">
			<stop  offset="0.3865" style="stop-color:#D0D2D3;stop-opacity:0"/>
			<stop  offset="1" style="stop-color:#D0D2D3"/>
		</linearGradient>
		<polygon fill="url(#SVGID_6_)" points="210.871,139.763 156.078,162.582 156.078,183.833 208.689,161.34 		"/>
		<linearGradient id="SVGID_7_" gradientUnits="userSpaceOnUse" x1="105.001" y1="223.8911" x2="206.8311" y2="223.8911">
			<stop  offset="0" style="stop-color:#E7E6E5"/>
			<stop  offset="1" style="stop-color:#FFFFFF"/>
		</linearGradient>
		<polygon fill="url(#SVGID_7_)" points="105.001,183.888 106.698,204.98 182.586,205.223 180.89,233.346 155.918,240.377 
			131.912,234.316 130.458,216.86 108.153,216.86 111.062,250.56 156.159,263.895 201.012,250.802 206.831,183.888 		"/>
		<g opacity="0.05">
			<polygon fill="#231F20" points="156.078,183.888 104.922,183.888 106.619,204.98 156.078,205.138 			"/>
			<polygon fill="#231F20" points="156.078,240.309 155.837,240.377 131.834,234.316 130.379,216.86 108.075,216.86 110.983,250.56 
				156.078,263.895 			"/>
		</g>
		<linearGradient id="SVGID_8_" gradientUnits="userSpaceOnUse" x1="100.3159" y1="150.5518" x2="210.8711" y2="150.5518">
			<stop  offset="0" style="stop-color:#E7E6E5"/>
			<stop  offset="1" style="stop-color:#FFFFFF"/>
		</linearGradient>
		<polygon fill="url(#SVGID_8_)" points="100.316,139.763 210.871,139.763 208.689,161.34 102.983,161.34 		"/>
		<polygon opacity="0.05" fill="#231F20" points="156.078,139.763 100.316,139.763 102.983,161.34 156.078,161.34 		"/>
	</g>
</g>
</svg>
