<?xml version="1.0" encoding="utf-8"?>
<!-- Generator: Adobe Illustrator 16.0.0, SVG Export Plug-In . SVG Version: 6.00 Build 0)  -->
<!DOCTYPE svg PUBLIC "-//W3C//DTD SVG 1.1//EN" "http://www.w3.org/Graphics/SVG/1.1/DTD/svg11.dtd">
<svg version="1.1" xmlns="http://www.w3.org/2000/svg" xmlns:xlink="http://www.w3.org/1999/xlink" x="0px" y="0px" width="310px"
	 height="357px" viewBox="0 0 310 357" enable-background="new 0 0 310 357" xml:space="preserve">
<g id="Layer_2">
	<g>
		<defs>
			<polygon id="SVGID_1_" points="303.314,263.924 154.746,349.406 6.431,263.483 6.686,92.077 155.255,6.594 303.568,92.518 			"/>
		</defs>
		<use xlink:href="#SVGID_1_"  overflow="visible" fill="#A6A8AB"/>
		<clipPath id="SVGID_2_">
			<use xlink:href="#SVGID_1_"  overflow="visible"/>
		</clipPath>
	</g>
</g>
<g id="Layer_1">
	<g>
		<g>
			<g>
				<path opacity="0.1091" fill="#FFFFFF" d="M-226.666,51.791c1.235,0,0.572-1.608,0.241-2.021
					c-0.706-0.879-1.765-2.222-2.991-2.222c-1.235,0-0.572,1.608-0.241,2.022C-228.951,50.45-227.892,51.791-226.666,51.791z"/>
				<path opacity="0.1091" fill="#FFFFFF" d="M-226.346,48.805c0.624,0,1.498-0.478,1.264-1.267
					c-0.195-0.657-1.578-2.328-2.332-2.328c-0.626,0-1.499,0.477-1.265,1.267C-228.484,47.135-227.102,48.805-226.346,48.805z"/>
				<path opacity="0.1091" fill="#FFFFFF" d="M-224.933,51.218c1.353,0,0.447-1.746,0.127-2.133
					c-0.756-0.917-2.001-2.547-3.32-2.547c-1.354,0-0.447,1.745-0.127,2.133C-227.497,49.587-226.251,51.218-224.933,51.218z"/>
				<path opacity="0.1091" fill="#FFFFFF" d="M-222.531,54.047c1.772,0-0.128-2.358-0.365-2.627
					c-0.904-1.015-1.863-1.975-2.879-2.879c-0.504-0.609-1.131-0.979-1.882-1.109c-1.772,0,0.128,2.357,0.365,2.625
					c0.904,1.016,1.864,1.975,2.879,2.879C-223.91,53.547-223.283,53.917-222.531,54.047z"/>
				<path opacity="0.1091" fill="#FFFFFF" d="M-222.643,51.392c1.578,0,0.165-2.046-0.118-2.375c-0.858-1.001-2.525-3.25-4.032-3.25
					c-1.576,0-0.163,2.047,0.118,2.375C-225.817,49.143-224.149,51.392-222.643,51.392z"/>
				<path opacity="0.1091" fill="#FFFFFF" d="M-228.515,48.296c1.845,0,1.273-2.782-0.252-2.782
					C-230.611,45.514-230.041,48.296-228.515,48.296z"/>
				<path opacity="0.1091" fill="#FFFFFF" d="M-228.933,51.016c0.617,0,1.481-0.496,1.267-1.264c-0.18-0.645-1.51-2.252-2.247-2.252
					c-0.617,0-1.481,0.496-1.267,1.264C-230.999,49.409-229.669,51.016-228.933,51.016z"/>
				<path opacity="0.1091" fill="#FFFFFF" d="M-226.057,54.531c1.542,0,0.219-1.995-0.07-2.336
					c-0.837-0.985-2.433-3.145-3.907-3.145c-1.542,0-0.219,1.993,0.07,2.335C-229.126,52.372-227.53,54.531-226.057,54.531z"/>
				<path opacity="0.1091" fill="#FFFFFF" d="M-223.311,48.292c1.221,0,0.582-1.596,0.25-2.008c-0.703-0.875-1.74-2.171-2.955-2.171
					c-1.221,0-0.582,1.594-0.25,2.007C-225.562,46.993-224.525,48.292-223.311,48.292z"/>
				<path opacity="0.1091" fill="#FFFFFF" d="M-227.824,53.333c1.273,0,0.536-1.65,0.208-2.057c-0.72-0.892-1.839-2.333-3.095-2.333
					c-1.275,0-0.536,1.651-0.208,2.059C-230.199,51.892-229.081,53.333-227.824,53.333z"/>
				<path opacity="0.1091" fill="#FFFFFF" d="M-224.91,47.299c0.607,0,1.455-0.53,1.262-1.268c-0.164-0.629-1.431-2.137-2.146-2.137
					c-0.606,0-1.453,0.53-1.262,1.268C-226.893,45.792-225.623,47.299-224.91,47.299z"/>
				<path opacity="0.1091" fill="#FFFFFF" d="M-229.556,49.772c1.941,0,1.18-2.868-0.335-2.868
					C-231.833,46.905-231.07,49.772-229.556,49.772z"/>
			</g>
		</g>
	</g>
	<g>
		<path d="M243,85c-61.714,61.714-123.429,123.429-184,184"/>
		<g>
			<g>
				<path d="M212.136,127.862c-15.691,17.812-37.531,36.89-53.48,54.765c-19.009,21.577-40.996,43.564-61.291,63.859
					c-0.642-0.642,0.087-3.296-1.926-1.926c-7.727,5.802-9.012,4.517-10.295,3.233c-0.643-0.642,5.073-5.073,2.741-4.025
					c5.073-5.073,13.213-13.855,7.493-9.419c-2.334,1.049-8.456,8.456-11.108,9.183c-2.657,0.73-0.237-3.616-2.889-2.889
					c-1.693,1.693-5.076,5.077-6.768,6.768c-2.332,1.045-0.236-3.619-1.928-1.927c-5.715,4.431-12.16,11.519-18.92,18.279
					c-0.642-0.642-2.979,0.411,0.083-3.293C112.399,200.632,172,138.463,232.158,80.233c7.084-6.444,3.294-0.085-0.815,5.951
					c1.368-2.011,2.332-1.047,3.703-3.062c0.964,0.963-0.814,5.951-7.26,13.039c1.692-1.691,3.382-3.381,5.075-5.075
					c2.012-1.371,0.963,0.963,1.604,1.605c-1.693,1.693-3.383,3.383-3.062,3.705c0.321,0.32,0.963,0.963,1.284,1.284
					c1.689-1.69,5.074-5.075,6.765-6.765c-1.69,1.69-3.382,3.381-3.061,3.702c0.32,0.321,0.963,0.963,1.285,1.285
					c-3.063,3.704-8.778,8.134-11.841,11.841l0.962,0.962c3.706-3.063,8.458-8.458,11.841-11.841
					c-1.372,2.015-1.051,2.335-0.408,2.978c-4.752,5.394-10.79,9.505-14.897,15.54l5.071-5.071
					C226.629,115.297,216.89,122.467,212.136,127.862z"/>
			</g>
		</g>
	</g>
	<g>
		<path d="M70.904,89.904c59.397,59.397,118.794,118.794,178.19,178.191"/>
		<g>
			<g>
				<path fill="#202020" d="M106.238,139.751c0.307-0.265,0.001-1.142,1.051-0.355c3.163,2.621,4.527,5.902,7.693,8.523l0.669-0.253
					c2.021,2.453,4.13,5.012,6.28,7.622c4.452,4.317,8.922,8.571,13.422,12.759c0.055-0.282,0.157-0.491,0.651-0.12
					c1.929,1.683,4.27,4.348,6.814,6.988c0.41,0.356,0.819,0.713,1.223,1.063c0.395,0.194,0.632,0.109,0.779,0.057
					c1.156,1.188,2.155,2.273,3.071,3.289c13.636,11.819,27.628,23.674,42.691,36.625c3.387,2.536,6.775,5.074,9.825,7.734
					c4.404,4.052,9.499,9.749,13.569,13.925c0.998-2.264,11.847,6.989,11.489,3.334c2.712,2.783,6.785,6.964,7.459,6.714
					c2.021-0.745,5.731-0.225,13.864,6.241c3.051,2.662,6.855,7.631,8.143,8.358c2.029,1.142-2.728-4.678-0.698-3.536
					c-20.729-21.729-41.771-41.572-63.134-62.961c-7.999-6.554-57.393-55.312-69.677-68.236l-1.166-1.125
					c-6.788-6.966-15.263-15.193-21.703-20.393c-3.053-2.286-6.234-4.533-9.386-6.785c0.988,1.525,1.882,2.958,2.626,4.232
					c-2.716-2.787-5.43-5.572-6.782-6.333c-6.555-5.16-4.053-1.026-2.91,2.337c1.135,2.106-1.801,0.66,0.241,3.693
					c-1.805-1.853-2.71-2.781-4.523-4.642c-0.672,0.251,5.881,5.409,3.852,4.893c-1.586-1.939-3.844-3.632-5.651-5.487
					c0.008,1.261,6.109,6.582,5.211,6.915c-1.131-0.846-4.307-5.986-5.43-5.572c-0.224,0.084,1.585,1.94,2.49,2.869
					c-5.876-5.405-9.717-7.78-5.408-1.792c-1.765-1.811-3.965-4.664-5.961-6.449c-0.002,0.007,0.002,0.019,0.002,0.027
					c0.917,0.969,2.385,2.755,3.246,3.637c-1.057-1.084-2.118-2.173-3.178-3.26c0.061,0.277,0.146,0.575,0.242,0.883
					c0.707,0.896,1.436,1.777,2.26,2.625c-0.701-0.72-1.405-1.441-2.11-2.166c0.283,0.784,0.655,1.64,1.102,2.54
					c2.043,3.036,3.748,6.195,5.104,7.587C84.321,117.216,95.205,128.616,106.238,139.751z"/>
			</g>
		</g>
	</g>
	<g>
		<polygon points="151.885,83.469 142.675,83.469 142.675,64.953 125.186,64.953 125.186,119.941 142.675,119.941 142.675,98.538 
			151.885,98.538 		"/>
		<polygon points="157.444,64.953 157.444,83.469 157.441,83.435 157.441,98.492 157.444,98.538 157.444,119.941 175,119.941 
			175,64.953 		"/>
	</g>
	<g>
		<rect x="66.358" y="143.857" width="12.026" height="40.949"/>
		<path d="M103.034,156.259c-0.67-2.495-1.75-4.683-3.24-6.564c-1.49-1.881-3.375-3.324-5.656-4.33
			c-2.281-1.006-5.275-1.508-8.98-1.508h-1.213v9.372c2.358,0.249,4.12,1.011,5.263,2.304c1.415,1.602,2.123,4.572,2.123,8.911
			c0,3.277-0.317,5.647-0.95,7.109c-0.633,1.462-1.509,2.486-2.626,3.072c-0.839,0.441-2.11,0.716-3.811,0.825v9.356h1.213
			c2.253,0,4.767-0.372,7.542-1.117c2.029-0.54,3.929-1.625,5.698-3.254c1.769-1.629,3.151-3.649,4.148-6.062
			c0.996-2.411,1.494-5.805,1.494-10.181C104.04,161.398,103.705,158.754,103.034,156.259z"/>
	</g>
	<g>
		<path d="M222.816,176.904c-0.425-0.166-0.827-0.357-1.179-0.599c-1.122-0.772-1.995-2.057-2.618-3.853l-15.112,1.421
			c0.872,3.815,2.849,6.758,5.929,8.828c2.709,1.821,7.038,2.839,12.98,3.058V176.904z"/>
		<path d="M228.373,153.462c0.035,0.022,0.075,0.038,0.11,0.061c0.873,0.599,1.496,1.534,1.871,2.806l14.438-1.421
			c-0.997-2.593-2.25-4.651-3.759-6.172c-1.51-1.521-3.392-2.643-5.648-3.367c-1.663-0.533-4.004-0.868-7.013-1.008V153.462z"/>
		<path d="M244.176,165.776c-1.309-1.893-3.198-3.35-5.667-4.372c-2.469-1.021-6.234-1.819-11.297-2.392
			c-3.342-0.399-5.512-0.847-6.509-1.345c-0.998-0.498-1.496-1.232-1.496-2.203c0-0.872,0.393-1.612,1.178-2.223
			c0.565-0.439,1.383-0.714,2.432-0.837v-8.081c-3.526,0.126-6.418,0.577-8.66,1.361c-2.669,0.934-4.764,2.348-6.284,4.241
			c-1.521,1.894-2.282,4.148-2.282,6.764c0,2.392,0.705,4.522,2.114,6.391c1.408,1.868,3.142,3.195,5.199,3.979
			c2.058,0.785,5.729,1.639,11.017,2.56c3.541,0.623,5.724,1.146,6.546,1.569c1.147,0.598,1.722,1.445,1.722,2.54
			c0,0.972-0.438,1.781-1.31,2.428c-0.666,0.518-1.515,0.862-2.505,1.072v8.489c3.724-0.21,6.779-0.818,9.145-1.835
			c2.979-1.283,5.162-3.008,6.547-5.176c1.384-2.167,2.075-4.397,2.075-6.689C246.14,169.75,245.485,167.67,244.176,165.776z"/>
	</g>
</g>
<g id="Layer_3">
	<g>
		<path d="M149.678,257.577c-1.65-0.363-3.001-1.207-4.088-2.562c-1.525-1.901-2.297-5.158-2.297-9.679
			c0-4.562,0.776-7.84,2.311-9.74c1.105-1.371,2.45-2.22,4.074-2.577v-13c-6.546,0.361-11.814,2.578-15.649,6.647
			c-4.19,4.442-6.313,10.703-6.313,18.606c0,5.642,1.069,10.423,3.178,14.209c2.121,3.811,4.937,6.64,8.369,8.41
			c2.845,1.466,6.344,2.32,10.416,2.562V257.577z"/>
		<path d="M169.348,226.551c-3.638-3.829-8.659-6.008-14.953-6.498v13.201c1.299,0.434,2.396,1.192,3.312,2.301
			c1.539,1.868,2.319,4.942,2.319,9.139c0,5.034-0.748,8.53-2.225,10.389c-0.906,1.142-2.032,1.915-3.406,2.333v13.039
			c4.103-0.268,7.649-1.265,10.557-2.992c3.444-2.043,6.114-4.942,7.933-8.615c1.805-3.638,2.719-8.335,2.719-13.961
			C175.603,237.089,173.498,230.919,169.348,226.551z"/>
	</g>
</g>
</svg>
